<svg xmlns="http://www.w3.org/2000/svg" viewBox="0 0 1600 1000" fill="none">
  <rect width="1600" height="1000" fill="#0c0c0a"/>
  <g transform="skewX(-18)">
    <rect x="-120" y="120" width="300" height="760" fill="none" stroke="#f1ede3" stroke-opacity="0.14" stroke-width="1.5"/>
    <rect x="-60" y="180" width="180" height="640" fill="none" stroke="#f1ede3" stroke-opacity="0.35" stroke-width="1.5"/>
    <rect x="240" y="120" width="300" height="760" fill="none" stroke="#f1ede3" stroke-opacity="0.14" stroke-width="1.5"/>
    <rect x="300" y="180" width="180" height="640" fill="none" stroke="#f1ede3" stroke-opacity="0.35" stroke-width="1.5"/>
    <rect x="600" y="120" width="300" height="760" fill="none" stroke="#f1ede3" stroke-opacity="0.14" stroke-width="1.5"/>
    <rect x="660" y="180" width="180" height="640" fill="none" stroke="#f1ede3" stroke-opacity="0.35" stroke-width="1.5"/>
    <rect x="960" y="120" width="300" height="760" fill="none" stroke="#f1ede3" stroke-opacity="0.14" stroke-width="1.5"/>
    <rect x="1020" y="180" width="180" height="640" fill="none" stroke="#f1ede3" stroke-opacity="0.35" stroke-width="1.5"/>
    <rect x="1320" y="120" width="300" height="760" fill="none" stroke="#f1ede3" stroke-opacity="0.14" stroke-width="1.5"/>
    <rect x="1380" y="180" width="180" height="640" fill="none" stroke="#f1ede3" stroke-opacity="0.35" stroke-width="1.5"/>
    <rect x="660" y="300" width="180" height="300" fill="none" stroke="#d4ff47" stroke-width="2.5"/>
    <circle cx="750" cy="450" r="34" fill="none" stroke="#d4ff47" stroke-width="2"/>
  </g>
  <path d="M1420 210 l40 0 -14 12 m14 -12 l-40 0 14 12" stroke="#d4ff47" stroke-width="1.6" fill="none"/>
  <text x="80" y="900" fill="#9b978a" font-family="monospace" font-size="20" letter-spacing="6">04 / MOTION</text>
</svg>
